<mxfile host="Electron" modified="2024-05-31T12:46:26.174Z" agent="Mozilla/5.0 (Windows NT 10.0; Win64; x64) AppleWebKit/537.36 (KHTML, like Gecko) draw.io/24.4.0 Chrome/120.0.6099.109 Electron/28.1.0 Safari/537.36" etag="xF18mdwHqoeFBbPfiz-s" version="24.4.0" type="device">
  <diagram name="Page-1" id="6Z11OKhmeaTzE4MoUShQ">
    <mxGraphModel dx="1200" dy="789" grid="1" gridSize="10" guides="1" tooltips="1" connect="1" arrows="1" fold="1" page="1" pageScale="1" pageWidth="850" pageHeight="1100" math="0" shadow="0">
      <root>
        <mxCell id="0" />
        <mxCell id="1" parent="0" />
        <mxCell id="aLUl6sGFBZg0g_39iKaZ-1" value="Template" style="shape=umlLifeline;perimeter=lifelinePerimeter;whiteSpace=wrap;html=1;container=1;collapsible=0;recursiveResize=0;outlineConnect=0;rounded=1;shadow=0;comic=0;labelBackgroundColor=none;strokeWidth=1;fontFamily=Verdana;fontSize=12;align=center;" vertex="1" parent="1">
          <mxGeometry x="200" y="40" width="100" height="780" as="geometry" />
        </mxCell>
        <mxCell id="aLUl6sGFBZg0g_39iKaZ-2" value="" style="html=1;points=[[0,0,0,0,5],[0,1,0,0,-5],[1,0,0,0,5],[1,1,0,0,-5]];perimeter=orthogonalPerimeter;outlineConnect=0;targetShapes=umlLifeline;portConstraint=eastwest;newEdgeStyle={&quot;curved&quot;:0,&quot;rounded&quot;:0};" vertex="1" parent="aLUl6sGFBZg0g_39iKaZ-1">
          <mxGeometry x="45" y="70" width="10" height="130" as="geometry" />
        </mxCell>
        <mxCell id="aLUl6sGFBZg0g_39iKaZ-3" value="View" style="shape=umlLifeline;perimeter=lifelinePerimeter;whiteSpace=wrap;html=1;container=1;collapsible=0;recursiveResize=0;outlineConnect=0;rounded=1;shadow=0;comic=0;labelBackgroundColor=none;strokeWidth=1;fontFamily=Verdana;fontSize=12;align=center;" vertex="1" parent="1">
          <mxGeometry x="460" y="40" width="100" height="780" as="geometry" />
        </mxCell>
        <mxCell id="aLUl6sGFBZg0g_39iKaZ-4" value="" style="html=1;points=[[0,0,0,0,5],[0,1,0,0,-5],[1,0,0,0,5],[1,1,0,0,-5]];perimeter=orthogonalPerimeter;outlineConnect=0;targetShapes=umlLifeline;portConstraint=eastwest;newEdgeStyle={&quot;curved&quot;:0,&quot;rounded&quot;:0};" vertex="1" parent="aLUl6sGFBZg0g_39iKaZ-3">
          <mxGeometry x="45" y="80" width="10" height="120" as="geometry" />
        </mxCell>
        <mxCell id="aLUl6sGFBZg0g_39iKaZ-7" value="" style="html=1;points=[[0,0,0,0,5],[0,1,0,0,-5],[1,0,0,0,5],[1,1,0,0,-5]];perimeter=orthogonalPerimeter;outlineConnect=0;targetShapes=umlLifeline;portConstraint=eastwest;newEdgeStyle={&quot;curved&quot;:0,&quot;rounded&quot;:0};" vertex="1" parent="1">
          <mxGeometry x="785" y="130" width="10" height="40" as="geometry" />
        </mxCell>
        <mxCell id="aLUl6sGFBZg0g_39iKaZ-8" value="" style="html=1;points=[[0,0,0,0,5],[0,1,0,0,-5],[1,0,0,0,5],[1,1,0,0,-5]];perimeter=orthogonalPerimeter;outlineConnect=0;targetShapes=umlLifeline;portConstraint=eastwest;newEdgeStyle={&quot;curved&quot;:0,&quot;rounded&quot;:0};" vertex="1" parent="1">
          <mxGeometry x="785" y="290" width="10" height="70" as="geometry" />
        </mxCell>
        <mxCell id="aLUl6sGFBZg0g_39iKaZ-9" value="" style="shape=umlLifeline;perimeter=lifelinePerimeter;whiteSpace=wrap;html=1;container=1;dropTarget=0;collapsible=0;recursiveResize=0;outlineConnect=0;portConstraint=eastwest;newEdgeStyle={&quot;curved&quot;:0,&quot;rounded&quot;:0};participant=umlActor;size=30;" vertex="1" parent="1">
          <mxGeometry x="40" y="40" width="20" height="780" as="geometry" />
        </mxCell>
        <mxCell id="aLUl6sGFBZg0g_39iKaZ-10" value="login attempt" style="html=1;verticalAlign=bottom;startArrow=oval;endArrow=block;startSize=8;curved=0;rounded=0;entryX=0;entryY=0;entryDx=0;entryDy=5;" edge="1" parent="1" source="aLUl6sGFBZg0g_39iKaZ-9" target="aLUl6sGFBZg0g_39iKaZ-2">
          <mxGeometry relative="1" as="geometry">
            <mxPoint x="175" y="125" as="sourcePoint" />
          </mxGeometry>
        </mxCell>
        <mxCell id="aLUl6sGFBZg0g_39iKaZ-11" value="login credentials" style="html=1;verticalAlign=bottom;endArrow=block;curved=0;rounded=0;entryX=0;entryY=0;entryDx=0;entryDy=5;" edge="1" parent="1" source="aLUl6sGFBZg0g_39iKaZ-1" target="aLUl6sGFBZg0g_39iKaZ-4">
          <mxGeometry relative="1" as="geometry">
            <mxPoint x="435" y="135" as="sourcePoint" />
          </mxGeometry>
        </mxCell>
        <mxCell id="aLUl6sGFBZg0g_39iKaZ-12" value="check credentials" style="html=1;verticalAlign=bottom;endArrow=block;curved=0;rounded=0;entryX=0;entryY=0;entryDx=0;entryDy=5;" edge="1" parent="1" source="aLUl6sGFBZg0g_39iKaZ-3" target="aLUl6sGFBZg0g_39iKaZ-7">
          <mxGeometry relative="1" as="geometry">
            <mxPoint x="715" y="155" as="sourcePoint" />
          </mxGeometry>
        </mxCell>
        <mxCell id="aLUl6sGFBZg0g_39iKaZ-13" value="user information if correct" style="html=1;verticalAlign=bottom;endArrow=open;dashed=1;endSize=8;curved=0;rounded=0;exitX=0;exitY=1;exitDx=0;exitDy=-5;" edge="1" parent="1" source="aLUl6sGFBZg0g_39iKaZ-7" target="aLUl6sGFBZg0g_39iKaZ-3">
          <mxGeometry relative="1" as="geometry">
            <mxPoint x="715" y="225" as="targetPoint" />
          </mxGeometry>
        </mxCell>
        <mxCell id="aLUl6sGFBZg0g_39iKaZ-14" value="display sticky notes if user information" style="html=1;verticalAlign=bottom;endArrow=open;dashed=1;endSize=8;curved=0;rounded=0;exitX=0;exitY=1;exitDx=0;exitDy=-5;" edge="1" parent="1">
          <mxGeometry relative="1" as="geometry">
            <mxPoint x="249.785714285714" y="219.9999999999999" as="targetPoint" />
            <mxPoint x="505" y="219.9999999999999" as="sourcePoint" />
          </mxGeometry>
        </mxCell>
        <mxCell id="aLUl6sGFBZg0g_39iKaZ-15" value="display login page if no user information" style="html=1;verticalAlign=bottom;endArrow=open;dashed=1;endSize=8;curved=0;rounded=0;" edge="1" parent="1" source="aLUl6sGFBZg0g_39iKaZ-3">
          <mxGeometry relative="1" as="geometry">
            <mxPoint x="504.5" y="180" as="sourcePoint" />
            <mxPoint x="250" y="180" as="targetPoint" />
          </mxGeometry>
        </mxCell>
        <mxCell id="aLUl6sGFBZg0g_39iKaZ-16" value="" style="html=1;points=[[0,0,0,0,5],[0,1,0,0,-5],[1,0,0,0,5],[1,1,0,0,-5]];perimeter=orthogonalPerimeter;outlineConnect=0;targetShapes=umlLifeline;portConstraint=eastwest;newEdgeStyle={&quot;curved&quot;:0,&quot;rounded&quot;:0};" vertex="1" parent="1">
          <mxGeometry x="245" y="270" width="10" height="110" as="geometry" />
        </mxCell>
        <mxCell id="aLUl6sGFBZg0g_39iKaZ-17" value="" style="html=1;points=[[0,0,0,0,5],[0,1,0,0,-5],[1,0,0,0,5],[1,1,0,0,-5]];perimeter=orthogonalPerimeter;outlineConnect=0;targetShapes=umlLifeline;portConstraint=eastwest;newEdgeStyle={&quot;curved&quot;:0,&quot;rounded&quot;:0};" vertex="1" parent="1">
          <mxGeometry x="505" y="280" width="10" height="90" as="geometry" />
        </mxCell>
        <mxCell id="aLUl6sGFBZg0g_39iKaZ-18" value="create sticky note" style="html=1;verticalAlign=bottom;startArrow=oval;endArrow=block;startSize=8;curved=0;rounded=0;entryX=0;entryY=0;entryDx=0;entryDy=5;" edge="1" parent="1" target="aLUl6sGFBZg0g_39iKaZ-16">
          <mxGeometry relative="1" as="geometry">
            <mxPoint x="49" y="275" as="sourcePoint" />
          </mxGeometry>
        </mxCell>
        <mxCell id="aLUl6sGFBZg0g_39iKaZ-19" value="sticky note information" style="html=1;verticalAlign=bottom;endArrow=block;curved=0;rounded=0;entryX=0;entryY=0;entryDx=0;entryDy=5;" edge="1" parent="1" target="aLUl6sGFBZg0g_39iKaZ-17">
          <mxGeometry relative="1" as="geometry">
            <mxPoint x="249" y="285" as="sourcePoint" />
          </mxGeometry>
        </mxCell>
        <mxCell id="aLUl6sGFBZg0g_39iKaZ-20" value="save sticky note" style="html=1;verticalAlign=bottom;endArrow=block;curved=0;rounded=0;entryX=0;entryY=0;entryDx=0;entryDy=5;" edge="1" parent="1" source="aLUl6sGFBZg0g_39iKaZ-17" target="aLUl6sGFBZg0g_39iKaZ-8">
          <mxGeometry relative="1" as="geometry">
            <mxPoint x="509" y="295" as="sourcePoint" />
          </mxGeometry>
        </mxCell>
        <mxCell id="aLUl6sGFBZg0g_39iKaZ-21" value="confirmation if successful" style="html=1;verticalAlign=bottom;endArrow=open;dashed=1;endSize=8;curved=0;rounded=0;exitX=0;exitY=1;exitDx=0;exitDy=-5;entryX=0.5;entryY=0.833;entryDx=0;entryDy=0;entryPerimeter=0;" edge="1" parent="1" source="aLUl6sGFBZg0g_39iKaZ-8" target="aLUl6sGFBZg0g_39iKaZ-17">
          <mxGeometry relative="1" as="geometry">
            <mxPoint x="509" y="325" as="targetPoint" />
          </mxGeometry>
        </mxCell>
        <mxCell id="aLUl6sGFBZg0g_39iKaZ-22" value="update list of sticky notes if successful" style="html=1;verticalAlign=bottom;endArrow=open;dashed=1;endSize=8;curved=0;rounded=0;exitX=0;exitY=1;exitDx=0;exitDy=-5;" edge="1" parent="1" source="aLUl6sGFBZg0g_39iKaZ-17">
          <mxGeometry relative="1" as="geometry">
            <mxPoint x="249" y="365" as="targetPoint" />
          </mxGeometry>
        </mxCell>
        <mxCell id="aLUl6sGFBZg0g_39iKaZ-23" value="display errors if unsuccessful" style="html=1;verticalAlign=bottom;endArrow=open;dashed=1;endSize=8;curved=0;rounded=0;" edge="1" parent="1">
          <mxGeometry relative="1" as="geometry">
            <mxPoint x="504.5" y="340" as="sourcePoint" />
            <mxPoint x="250" y="340" as="targetPoint" />
          </mxGeometry>
        </mxCell>
        <mxCell id="aLUl6sGFBZg0g_39iKaZ-25" value="error message if unsuccessful" style="html=1;verticalAlign=bottom;endArrow=open;dashed=1;endSize=8;curved=0;rounded=0;" edge="1" parent="1" source="aLUl6sGFBZg0g_39iKaZ-8">
          <mxGeometry relative="1" as="geometry">
            <mxPoint x="780" y="324.44" as="sourcePoint" />
            <mxPoint x="510" y="324" as="targetPoint" />
          </mxGeometry>
        </mxCell>
        <mxCell id="aLUl6sGFBZg0g_39iKaZ-26" value="" style="html=1;points=[[0,0,0,0,5],[0,1,0,0,-5],[1,0,0,0,5],[1,1,0,0,-5]];perimeter=orthogonalPerimeter;outlineConnect=0;targetShapes=umlLifeline;portConstraint=eastwest;newEdgeStyle={&quot;curved&quot;:0,&quot;rounded&quot;:0};" vertex="1" parent="1">
          <mxGeometry x="785" y="420" width="10" height="70" as="geometry" />
        </mxCell>
        <mxCell id="aLUl6sGFBZg0g_39iKaZ-27" value="" style="html=1;points=[[0,0,0,0,5],[0,1,0,0,-5],[1,0,0,0,5],[1,1,0,0,-5]];perimeter=orthogonalPerimeter;outlineConnect=0;targetShapes=umlLifeline;portConstraint=eastwest;newEdgeStyle={&quot;curved&quot;:0,&quot;rounded&quot;:0};" vertex="1" parent="1">
          <mxGeometry x="245" y="400" width="10" height="110" as="geometry" />
        </mxCell>
        <mxCell id="aLUl6sGFBZg0g_39iKaZ-28" value="" style="html=1;points=[[0,0,0,0,5],[0,1,0,0,-5],[1,0,0,0,5],[1,1,0,0,-5]];perimeter=orthogonalPerimeter;outlineConnect=0;targetShapes=umlLifeline;portConstraint=eastwest;newEdgeStyle={&quot;curved&quot;:0,&quot;rounded&quot;:0};" vertex="1" parent="1">
          <mxGeometry x="505" y="410" width="10" height="90" as="geometry" />
        </mxCell>
        <mxCell id="aLUl6sGFBZg0g_39iKaZ-29" value="update&amp;nbsp;sticky note" style="html=1;verticalAlign=bottom;startArrow=oval;endArrow=block;startSize=8;curved=0;rounded=0;entryX=0;entryY=0;entryDx=0;entryDy=5;" edge="1" parent="1" target="aLUl6sGFBZg0g_39iKaZ-27">
          <mxGeometry relative="1" as="geometry">
            <mxPoint x="49" y="405" as="sourcePoint" />
          </mxGeometry>
        </mxCell>
        <mxCell id="aLUl6sGFBZg0g_39iKaZ-30" value="sticky note information" style="html=1;verticalAlign=bottom;endArrow=block;curved=0;rounded=0;entryX=0;entryY=0;entryDx=0;entryDy=5;" edge="1" parent="1" target="aLUl6sGFBZg0g_39iKaZ-28">
          <mxGeometry relative="1" as="geometry">
            <mxPoint x="249" y="415" as="sourcePoint" />
          </mxGeometry>
        </mxCell>
        <mxCell id="aLUl6sGFBZg0g_39iKaZ-31" value="update sticky note" style="html=1;verticalAlign=bottom;endArrow=block;curved=0;rounded=0;entryX=0;entryY=0;entryDx=0;entryDy=5;" edge="1" parent="1" source="aLUl6sGFBZg0g_39iKaZ-28" target="aLUl6sGFBZg0g_39iKaZ-26">
          <mxGeometry relative="1" as="geometry">
            <mxPoint x="509" y="425" as="sourcePoint" />
          </mxGeometry>
        </mxCell>
        <mxCell id="aLUl6sGFBZg0g_39iKaZ-32" value="confirrmation if successful" style="html=1;verticalAlign=bottom;endArrow=open;dashed=1;endSize=8;curved=0;rounded=0;exitX=0;exitY=1;exitDx=0;exitDy=-5;entryX=0.5;entryY=0.833;entryDx=0;entryDy=0;entryPerimeter=0;" edge="1" parent="1" source="aLUl6sGFBZg0g_39iKaZ-26" target="aLUl6sGFBZg0g_39iKaZ-28">
          <mxGeometry relative="1" as="geometry">
            <mxPoint x="509" y="455" as="targetPoint" />
          </mxGeometry>
        </mxCell>
        <mxCell id="aLUl6sGFBZg0g_39iKaZ-33" value="update list of sticky notes" style="html=1;verticalAlign=bottom;endArrow=open;dashed=1;endSize=8;curved=0;rounded=0;exitX=0;exitY=1;exitDx=0;exitDy=-5;" edge="1" parent="1" source="aLUl6sGFBZg0g_39iKaZ-28">
          <mxGeometry relative="1" as="geometry">
            <mxPoint x="249" y="495" as="targetPoint" />
          </mxGeometry>
        </mxCell>
        <mxCell id="aLUl6sGFBZg0g_39iKaZ-34" value="display errors if unsuccessful" style="html=1;verticalAlign=bottom;endArrow=open;dashed=1;endSize=8;curved=0;rounded=0;" edge="1" parent="1">
          <mxGeometry relative="1" as="geometry">
            <mxPoint x="504.5" y="470" as="sourcePoint" />
            <mxPoint x="250" y="470" as="targetPoint" />
          </mxGeometry>
        </mxCell>
        <mxCell id="aLUl6sGFBZg0g_39iKaZ-35" value="error message if unsuccessful" style="html=1;verticalAlign=bottom;endArrow=open;dashed=1;endSize=8;curved=0;rounded=0;" edge="1" parent="1" source="aLUl6sGFBZg0g_39iKaZ-26">
          <mxGeometry relative="1" as="geometry">
            <mxPoint x="780" y="454.44" as="sourcePoint" />
            <mxPoint x="510" y="454" as="targetPoint" />
          </mxGeometry>
        </mxCell>
        <mxCell id="aLUl6sGFBZg0g_39iKaZ-36" value="" style="html=1;points=[[0,0,0,0,5],[0,1,0,0,-5],[1,0,0,0,5],[1,1,0,0,-5]];perimeter=orthogonalPerimeter;outlineConnect=0;targetShapes=umlLifeline;portConstraint=eastwest;newEdgeStyle={&quot;curved&quot;:0,&quot;rounded&quot;:0};" vertex="1" parent="1">
          <mxGeometry x="785" y="550" width="10" height="70" as="geometry" />
        </mxCell>
        <mxCell id="aLUl6sGFBZg0g_39iKaZ-37" value="" style="html=1;points=[[0,0,0,0,5],[0,1,0,0,-5],[1,0,0,0,5],[1,1,0,0,-5]];perimeter=orthogonalPerimeter;outlineConnect=0;targetShapes=umlLifeline;portConstraint=eastwest;newEdgeStyle={&quot;curved&quot;:0,&quot;rounded&quot;:0};" vertex="1" parent="1">
          <mxGeometry x="245" y="530" width="10" height="120" as="geometry" />
        </mxCell>
        <mxCell id="aLUl6sGFBZg0g_39iKaZ-38" value="" style="html=1;points=[[0,0,0,0,5],[0,1,0,0,-5],[1,0,0,0,5],[1,1,0,0,-5]];perimeter=orthogonalPerimeter;outlineConnect=0;targetShapes=umlLifeline;portConstraint=eastwest;newEdgeStyle={&quot;curved&quot;:0,&quot;rounded&quot;:0};" vertex="1" parent="1">
          <mxGeometry x="505" y="540" width="10" height="110" as="geometry" />
        </mxCell>
        <mxCell id="aLUl6sGFBZg0g_39iKaZ-39" value="archive sticky note" style="html=1;verticalAlign=bottom;startArrow=oval;endArrow=block;startSize=8;curved=0;rounded=0;entryX=0;entryY=0;entryDx=0;entryDy=5;" edge="1" parent="1" target="aLUl6sGFBZg0g_39iKaZ-37">
          <mxGeometry relative="1" as="geometry">
            <mxPoint x="49" y="535" as="sourcePoint" />
          </mxGeometry>
        </mxCell>
        <mxCell id="aLUl6sGFBZg0g_39iKaZ-40" value="sticky note information" style="html=1;verticalAlign=bottom;endArrow=block;curved=0;rounded=0;entryX=0;entryY=0;entryDx=0;entryDy=5;" edge="1" parent="1" target="aLUl6sGFBZg0g_39iKaZ-38">
          <mxGeometry relative="1" as="geometry">
            <mxPoint x="249" y="545" as="sourcePoint" />
          </mxGeometry>
        </mxCell>
        <mxCell id="aLUl6sGFBZg0g_39iKaZ-41" value="update sticky note" style="html=1;verticalAlign=bottom;endArrow=block;curved=0;rounded=0;entryX=0;entryY=0;entryDx=0;entryDy=5;" edge="1" parent="1" source="aLUl6sGFBZg0g_39iKaZ-38" target="aLUl6sGFBZg0g_39iKaZ-36">
          <mxGeometry relative="1" as="geometry">
            <mxPoint x="509" y="555" as="sourcePoint" />
          </mxGeometry>
        </mxCell>
        <mxCell id="aLUl6sGFBZg0g_39iKaZ-42" value="confirmation if successful" style="html=1;verticalAlign=bottom;endArrow=open;dashed=1;endSize=8;curved=0;rounded=0;exitX=0;exitY=1;exitDx=0;exitDy=-5;" edge="1" parent="1" source="aLUl6sGFBZg0g_39iKaZ-36" target="aLUl6sGFBZg0g_39iKaZ-3">
          <mxGeometry relative="1" as="geometry">
            <mxPoint x="509" y="585" as="targetPoint" />
          </mxGeometry>
        </mxCell>
        <mxCell id="aLUl6sGFBZg0g_39iKaZ-43" value="update list of sticky notes" style="html=1;verticalAlign=bottom;endArrow=open;dashed=1;endSize=8;curved=0;rounded=0;" edge="1" parent="1" source="aLUl6sGFBZg0g_39iKaZ-38" target="aLUl6sGFBZg0g_39iKaZ-1">
          <mxGeometry relative="1" as="geometry">
            <mxPoint x="249" y="625" as="targetPoint" />
            <Array as="points">
              <mxPoint x="490" y="640" />
            </Array>
          </mxGeometry>
        </mxCell>
        <mxCell id="aLUl6sGFBZg0g_39iKaZ-44" value="display error if unsuccessful" style="html=1;verticalAlign=bottom;endArrow=open;dashed=1;endSize=8;curved=0;rounded=0;" edge="1" parent="1">
          <mxGeometry relative="1" as="geometry">
            <mxPoint x="504.5" y="600" as="sourcePoint" />
            <mxPoint x="250" y="600" as="targetPoint" />
          </mxGeometry>
        </mxCell>
        <mxCell id="aLUl6sGFBZg0g_39iKaZ-45" value="error message if unsuccessful" style="html=1;verticalAlign=bottom;endArrow=open;dashed=1;endSize=8;curved=0;rounded=0;" edge="1" parent="1" source="aLUl6sGFBZg0g_39iKaZ-36">
          <mxGeometry relative="1" as="geometry">
            <mxPoint x="780" y="584.44" as="sourcePoint" />
            <mxPoint x="510" y="584" as="targetPoint" />
          </mxGeometry>
        </mxCell>
        <mxCell id="aLUl6sGFBZg0g_39iKaZ-46" value="" style="html=1;points=[[0,0,0,0,5],[0,1,0,0,-5],[1,0,0,0,5],[1,1,0,0,-5]];perimeter=orthogonalPerimeter;outlineConnect=0;targetShapes=umlLifeline;portConstraint=eastwest;newEdgeStyle={&quot;curved&quot;:0,&quot;rounded&quot;:0};" vertex="1" parent="1">
          <mxGeometry x="785" y="690" width="10" height="70" as="geometry" />
        </mxCell>
        <mxCell id="aLUl6sGFBZg0g_39iKaZ-47" value="" style="html=1;points=[[0,0,0,0,5],[0,1,0,0,-5],[1,0,0,0,5],[1,1,0,0,-5]];perimeter=orthogonalPerimeter;outlineConnect=0;targetShapes=umlLifeline;portConstraint=eastwest;newEdgeStyle={&quot;curved&quot;:0,&quot;rounded&quot;:0};" vertex="1" parent="1">
          <mxGeometry x="245" y="670" width="10" height="130" as="geometry" />
        </mxCell>
        <mxCell id="aLUl6sGFBZg0g_39iKaZ-48" value="" style="html=1;points=[[0,0,0,0,5],[0,1,0,0,-5],[1,0,0,0,5],[1,1,0,0,-5]];perimeter=orthogonalPerimeter;outlineConnect=0;targetShapes=umlLifeline;portConstraint=eastwest;newEdgeStyle={&quot;curved&quot;:0,&quot;rounded&quot;:0};" vertex="1" parent="1">
          <mxGeometry x="505" y="680" width="10" height="120" as="geometry" />
        </mxCell>
        <mxCell id="aLUl6sGFBZg0g_39iKaZ-49" value="delete sticky note" style="html=1;verticalAlign=bottom;startArrow=oval;endArrow=block;startSize=8;curved=0;rounded=0;entryX=0;entryY=0;entryDx=0;entryDy=5;" edge="1" parent="1" target="aLUl6sGFBZg0g_39iKaZ-47">
          <mxGeometry relative="1" as="geometry">
            <mxPoint x="49" y="675" as="sourcePoint" />
          </mxGeometry>
        </mxCell>
        <mxCell id="aLUl6sGFBZg0g_39iKaZ-50" value="sticky note information" style="html=1;verticalAlign=bottom;endArrow=block;curved=0;rounded=0;entryX=0;entryY=0;entryDx=0;entryDy=5;" edge="1" parent="1" target="aLUl6sGFBZg0g_39iKaZ-48">
          <mxGeometry relative="1" as="geometry">
            <mxPoint x="249" y="685" as="sourcePoint" />
          </mxGeometry>
        </mxCell>
        <mxCell id="aLUl6sGFBZg0g_39iKaZ-51" value="delete sticky note" style="html=1;verticalAlign=bottom;endArrow=block;curved=0;rounded=0;entryX=0;entryY=0;entryDx=0;entryDy=5;" edge="1" parent="1" source="aLUl6sGFBZg0g_39iKaZ-48" target="aLUl6sGFBZg0g_39iKaZ-46">
          <mxGeometry relative="1" as="geometry">
            <mxPoint x="509" y="695" as="sourcePoint" />
          </mxGeometry>
        </mxCell>
        <mxCell id="aLUl6sGFBZg0g_39iKaZ-52" value="confirmation if successful" style="html=1;verticalAlign=bottom;endArrow=open;dashed=1;endSize=8;curved=0;rounded=0;exitX=0;exitY=1;exitDx=0;exitDy=-5;" edge="1" parent="1" source="aLUl6sGFBZg0g_39iKaZ-46" target="aLUl6sGFBZg0g_39iKaZ-48">
          <mxGeometry relative="1" as="geometry">
            <mxPoint x="509" y="725" as="targetPoint" />
          </mxGeometry>
        </mxCell>
        <mxCell id="aLUl6sGFBZg0g_39iKaZ-53" value="display updated task" style="html=1;verticalAlign=bottom;endArrow=open;dashed=1;endSize=8;curved=0;rounded=0;exitX=0;exitY=1;exitDx=0;exitDy=-5;" edge="1" parent="1">
          <mxGeometry relative="1" as="geometry">
            <mxPoint x="255" y="785" as="targetPoint" />
            <mxPoint x="505" y="785" as="sourcePoint" />
          </mxGeometry>
        </mxCell>
        <mxCell id="aLUl6sGFBZg0g_39iKaZ-54" value="display error if unsuccessful" style="html=1;verticalAlign=bottom;endArrow=open;dashed=1;endSize=8;curved=0;rounded=0;" edge="1" parent="1">
          <mxGeometry relative="1" as="geometry">
            <mxPoint x="504.5" y="740" as="sourcePoint" />
            <mxPoint x="250" y="740" as="targetPoint" />
          </mxGeometry>
        </mxCell>
        <mxCell id="aLUl6sGFBZg0g_39iKaZ-55" value="error message if unsuccessful" style="html=1;verticalAlign=bottom;endArrow=open;dashed=1;endSize=8;curved=0;rounded=0;" edge="1" parent="1" source="aLUl6sGFBZg0g_39iKaZ-46">
          <mxGeometry relative="1" as="geometry">
            <mxPoint x="780" y="724.44" as="sourcePoint" />
            <mxPoint x="510" y="724" as="targetPoint" />
          </mxGeometry>
        </mxCell>
        <mxCell id="aLUl6sGFBZg0g_39iKaZ-69" value="User" style="text;html=1;align=center;verticalAlign=middle;resizable=0;points=[];autosize=1;strokeColor=none;fillColor=none;" vertex="1" parent="1">
          <mxGeometry x="25" y="10" width="50" height="30" as="geometry" />
        </mxCell>
        <mxCell id="aLUl6sGFBZg0g_39iKaZ-70" value="Model" style="rounded=1;whiteSpace=wrap;html=1;" vertex="1" parent="1">
          <mxGeometry x="740" y="40" width="100" height="40" as="geometry" />
        </mxCell>
        <mxCell id="aLUl6sGFBZg0g_39iKaZ-72" style="edgeStyle=orthogonalEdgeStyle;rounded=0;orthogonalLoop=1;jettySize=auto;html=1;exitX=0.5;exitY=1;exitDx=0;exitDy=0;entryX=0.562;entryY=-0.013;entryDx=0;entryDy=0;entryPerimeter=0;" edge="1" parent="1" source="aLUl6sGFBZg0g_39iKaZ-70" target="aLUl6sGFBZg0g_39iKaZ-7">
          <mxGeometry relative="1" as="geometry" />
        </mxCell>
      </root>
    </mxGraphModel>
  </diagram>
</mxfile>
